<svg width="23" height="20" viewBox="0 0 23 20" fill="none" xmlns="http://www.w3.org/2000/svg">
<path d="M1.59863 3.94531H21.9111C22.3426 3.94531 22.6924 3.59556 22.6924 3.16406V1.21094C22.6924 0.779443 22.3426 0.429688 21.9111 0.429688H1.59863C1.16714 0.429688 0.817383 0.779443 0.817383 1.21094V3.16406C0.817383 3.59556 1.16714 3.94531 1.59863 3.94531ZM1.59863 11.7578H21.9111C22.3426 11.7578 22.6924 11.4081 22.6924 10.9766V9.02344C22.6924 8.59194 22.3426 8.24219 21.9111 8.24219H1.59863C1.16714 8.24219 0.817383 8.59194 0.817383 9.02344V10.9766C0.817383 11.4081 1.16714 11.7578 1.59863 11.7578ZM1.59863 19.5703H21.9111C22.3426 19.5703 22.6924 19.2206 22.6924 18.7891V16.8359C22.6924 16.4044 22.3426 16.0547 21.9111 16.0547H1.59863C1.16714 16.0547 0.817383 16.4044 0.817383 16.8359V18.7891C0.817383 19.2206 1.16714 19.5703 1.59863 19.5703Z" fill="#2E2B2B"/>
</svg>
