<svg width="23" height="22" viewBox="0 0 23 22" fill="none" xmlns="http://www.w3.org/2000/svg">
<path d="M15.902 11L22.1222 4.77974C22.8855 4.01643 22.8855 2.77884 22.1222 2.0149L20.7398 0.632487C19.9765 -0.130827 18.7389 -0.130827 17.975 0.632487L11.7547 6.85275L5.53444 0.632487C4.77112 -0.130827 3.53354 -0.130827 2.7696 0.632487L1.38718 2.0149C0.623869 2.77822 0.623869 4.01581 1.38718 4.77974L7.60744 11L1.38718 17.2203C0.623869 17.9836 0.623869 19.2212 1.38718 19.9851L2.7696 21.3675C3.53291 22.1308 4.77112 22.1308 5.53444 21.3675L11.7547 15.1473L17.975 21.3675C18.7383 22.1308 19.9765 22.1308 20.7398 21.3675L22.1222 19.9851C22.8855 19.2218 22.8855 17.9842 22.1222 17.2203L15.902 11Z" fill="#2E2B2B"/>
</svg>
