<svg width="24" height="24" viewBox="0 0 24 24" fill="none" xmlns="http://www.w3.org/2000/svg">
<path d="M6.66667 21C5.6 21 4.53333 19.95 4 19.5C1.33333 17.4 0.533333 16.65 0 16.2V22.5C0 23.3283 0.597083 24 1.33333 24H12C12.7362 24 13.3333 23.3283 13.3333 22.5V16.2C12.8 16.65 12 17.4 9.33333 19.5C8.8 19.95 7.73333 21 6.66667 21ZM12 12H1.33333C0.597083 12 0 12.6717 0 13.5V14.25C1.06667 15.15 0.933333 15.15 4.8 18.3C5.2 18.6 6 19.5 6.66667 19.5C7.33333 19.5 8.13333 18.6 8.53333 18.45C12.4 15.3 12.2667 15.3 13.3333 14.4V13.5C13.3333 12.6717 12.7362 12 12 12ZM22.6667 7.5H9.33333C8.59708 7.5 8 8.17172 8 9V10.5H12C13.3837 10.5 14.5246 11.6916 14.6546 13.2103L14.6667 13.2V19.5H22.6667C23.4029 19.5 24 18.8283 24 18V9C24 8.17172 23.4029 7.5 22.6667 7.5ZM21.3333 13.5H18.6667V10.5H21.3333V13.5ZM6.66667 9C6.66667 7.34578 7.86292 6 9.33333 6H18.6667V1.5C18.6667 0.671719 18.0696 0 17.3333 0H4C3.26375 0 2.66667 0.671719 2.66667 1.5V10.5H6.66667V9Z" fill="white"/>
</svg>
