<svg width="24" height="25" viewBox="0 0 24 25" fill="none" xmlns="http://www.w3.org/2000/svg">
<path d="M22.6783 17.6656L17.5717 15.3218C17.3536 15.2223 17.1111 15.2013 16.8809 15.262C16.6506 15.3228 16.4451 15.462 16.2951 15.6587L14.0336 18.6177C10.4844 16.8256 7.62808 13.7668 5.95466 9.96587L8.7177 7.54399C8.90175 7.38368 9.03203 7.16351 9.08879 6.91682C9.14556 6.67013 9.12573 6.41035 9.0323 6.1768L6.84376 0.708053C6.74122 0.4563 6.55987 0.250751 6.33098 0.126852C6.10209 0.00295173 5.84 -0.0315334 5.58991 0.0293424L0.848061 1.20122C0.606942 1.26085 0.391816 1.40624 0.237792 1.61366C0.0837689 1.82109 -5.55439e-05 2.07829 2.76131e-08 2.34331C2.76131e-08 14.8677 9.47913 24.9996 21.1559 24.9996C21.4035 24.9997 21.6437 24.91 21.8375 24.7451C22.0313 24.5801 22.1671 24.3497 22.2228 24.0914L23.3171 19.0132C23.3736 18.7441 23.3407 18.4623 23.2241 18.2163C23.1075 17.9704 22.9145 17.7756 22.6783 17.6656Z" fill="white"/>
</svg>
