<svg width="24" height="21" viewBox="0 0 24 21" fill="none" xmlns="http://www.w3.org/2000/svg">
<path d="M21.5331 5.35897C21.5483 5.58317 21.5483 5.80743 21.5483 6.03164C21.5483 12.8703 16.5991 20.75 7.55333 20.75C4.7665 20.75 2.17768 19.9011 0 18.4278C0.395955 18.4758 0.776628 18.4918 1.18782 18.4918C3.48728 18.4918 5.60407 17.675 7.29444 16.2817C5.13199 16.2336 3.31979 14.7442 2.69542 12.6941C3.00001 12.7422 3.30456 12.7742 3.62439 12.7742C4.066 12.7742 4.50766 12.7101 4.9188 12.5981C2.66499 12.1175 0.974582 10.0355 0.974582 7.52108V7.45705C1.62938 7.84142 2.39087 8.08165 3.19792 8.11365C1.87304 7.18472 1.00505 5.5992 1.00505 3.80543C1.00505 2.84451 1.24866 1.96365 1.67508 1.1949C4.09642 4.33396 7.73605 6.38392 11.8172 6.60818C11.7411 6.2238 11.6954 5.82345 11.6954 5.42305C11.6954 2.57224 13.8883 0.25 16.6142 0.25C18.0304 0.25 19.3096 0.874608 20.2081 1.88359C21.3198 1.65939 22.3858 1.22694 23.33 0.634378C22.9644 1.83558 22.1878 2.84456 21.1675 3.48514C22.1574 3.37309 23.1168 3.08474 24 2.68439C23.3301 3.70935 22.4924 4.6222 21.5331 5.35897Z" fill="white"/>
</svg>
